<svg fill="none" height="47" viewBox="0 0 60 47" width="60" xmlns="http://www.w3.org/2000/svg">
	<title>Discord</title>
	<g clip-path="url(#clip0_188_3159)">
		<path d="M50.8256 3.88992C46.8908 2.04884 42.728 0.740671 38.4473 0C37.9141 0.963984 37.2912 2.26055 36.8615 3.29203C32.2462 2.59805 27.6733 2.59805 23.1429 3.29203C22.7135 2.26078 22.0765 0.963984 21.5383 0C17.2535 0.741013 13.0872 2.05251 9.15045 3.89953C1.3167 15.7376 -0.806969 27.2812 0.254749 38.6616C5.45061 42.5416 10.4859 44.8988 15.4364 46.4412C16.6667 44.7493 17.7543 42.958 18.6879 41.0859C16.9104 40.4093 15.1969 39.5753 13.5677 38.5941C13.9965 38.2763 14.4151 37.9451 14.823 37.601C24.6954 42.2187 35.4222 42.2187 45.1769 37.601C45.5866 37.9428 46.0051 38.274 46.432 38.5941C44.8002 39.5779 43.0835 40.4135 41.3025 41.0909C42.2414 42.9705 43.327 44.7635 44.554 46.4459C49.5091 44.9037 54.5491 42.5466 59.745 38.6616C60.9909 25.4691 57.6169 14.0313 50.8256 3.88992ZM20.033 31.6629C17.0693 31.6629 14.6388 28.8961 14.6388 25.527C14.6388 22.1578 17.0175 19.3863 20.033 19.3863C23.0487 19.3863 25.4789 22.1529 25.4271 25.527C25.4318 28.8961 23.0487 31.6629 20.033 31.6629ZM39.9668 31.6629C37.0031 31.6629 34.5729 28.8961 34.5729 25.527C34.5729 22.1578 36.9513 19.3863 39.9668 19.3863C42.9825 19.3863 45.4127 22.1529 45.3609 25.527C45.3609 28.8961 42.9825 31.6629 39.9668 31.6629Z" fill="#5865F2"/>
	</g>
	<defs>
		<clipPath id="clip0_188_3159">
			<rect fill="white" height="46.6406" width="60"/>
		</clipPath>
	</defs>
</svg>
