<svg fill="none" height="40" role="img" viewBox="0 0 40 40" width="40" xmlns="http://www.w3.org/2000/svg">
	<title>Connect Icon</title>
	<path clip-rule="evenodd" d="M17.3671 13.4537C18.7823 13.5551 20.16 13.96 21.4052 14.6403C22.6503 15.3206 23.7349 16.2609 24.5848 17.3971C25.1016 18.088 24.9602 19.0677 24.2694 19.5846C23.5784 20.1014 22.5988 19.9601 22.0819 19.2692C21.5004 18.4919 20.759 17.8479 19.9071 17.3825C19.0552 16.917 18.1127 16.6403 17.1444 16.5709C16.1761 16.5016 15.2034 16.6418 14.2938 16.9811C13.3844 17.3204 12.5582 17.8513 11.872 18.5377L6.89051 23.5192L6.6659 23.7633C5.57492 25.0098 4.97579 26.6168 4.99012 28.2809C5.00554 30.0562 5.71815 31.755 6.97352 33.0104C8.22883 34.2655 9.92691 34.9774 11.702 34.9928C13.4772 35.0082 15.1878 34.3257 16.4647 33.0924L19.2958 30.2614C19.9059 29.6518 20.8947 29.6517 21.5048 30.2614C22.1148 30.8715 22.1147 31.8611 21.5048 32.4713L18.6552 35.3219C18.6489 35.3282 18.642 35.3343 18.6356 35.3405C16.7693 37.143 14.2692 38.1403 11.6747 38.1178C9.08027 38.0952 6.59823 37.0549 4.76355 35.2203C2.92879 33.3856 1.88766 30.9029 1.86512 28.3082C1.84267 25.7137 2.84092 23.2136 4.64344 21.3473L9.66199 16.3287L10.0477 15.9625C10.9689 15.1351 12.039 14.4872 13.202 14.0533C14.5314 13.5575 15.9519 13.3524 17.3671 13.4537ZM28.3251 1.88147C30.9196 1.90409 33.4025 2.9452 35.2372 4.77991C37.0717 6.61457 38.112 9.09664 38.1346 11.691C38.1572 14.2856 37.1598 16.7856 35.3573 18.652C35.3511 18.6584 35.345 18.6652 35.3387 18.6715L30.3387 23.6715C29.3356 24.675 28.1281 25.451 26.7987 25.9469C25.4693 26.4428 24.048 26.6469 22.6327 26.5455C21.2175 26.4441 19.8407 26.0392 18.5956 25.359C17.3503 24.6787 16.2659 23.7384 15.4159 22.6022C14.8991 21.9112 15.0403 20.9325 15.7313 20.4157C16.4223 19.899 17.401 20.0402 17.9179 20.7311C18.4994 21.5084 19.2417 22.1514 20.0936 22.6168C20.9456 23.0823 21.888 23.359 22.8563 23.4283C23.8245 23.4976 24.7965 23.3583 25.7059 23.0192C26.6155 22.6798 27.4424 22.1481 28.1288 21.4616L33.1093 16.4811C34.3425 15.2041 35.0251 13.4936 35.0096 11.7184C34.9942 9.94328 34.2824 8.24517 33.0272 6.98987C31.772 5.73466 30.0738 5.02207 28.2987 5.00647C26.5236 4.99105 24.813 5.6738 23.536 6.90686L20.6854 9.74085C20.0735 10.3492 19.0839 10.3468 18.4755 9.73499C17.8671 9.12302 17.8703 8.13344 18.4823 7.52503L21.3485 4.67542L21.3651 4.65979C23.2314 2.85739 25.7306 1.85903 28.3251 1.88147Z" fill="url(#paint0_linear_185_1412_connect)" fill-rule="evenodd"/>
	<defs>
		<linearGradient gradientUnits="userSpaceOnUse" id="paint0_linear_185_1412_connect" x1="-4.3012" x2="44.3588" y1="5.686" y2="11.3493">
			<stop stop-color="#5B4BFF"/>
			<stop offset="1" stop-color="#EE11FB"/>
		</linearGradient>
	</defs>
</svg>
