<svg width="32" height="32" viewBox="0 0 32 32" fill="none" xmlns="http://www.w3.org/2000/svg">
  <path d="M10.667 2.6665L13.1737 5.17317" stroke="#5B4BFF" stroke-width="2.66667" stroke-linecap="round" stroke-linejoin="round"/>
  <path d="M18.8271 5.17317L21.3338 2.6665" stroke="#5B4BFF" stroke-width="2.66667" stroke-linecap="round" stroke-linejoin="round"/>
  <path d="M12.0001 9.5065V8.17316C11.9759 7.63283 12.0615 7.09319 12.2516 6.58683C12.4417 6.08047 12.7325 5.61787 13.1063 5.22696C13.4801 4.83605 13.9292 4.52493 14.4266 4.31238C14.9239 4.09982 15.4592 3.99023 16.0001 3.99023C16.541 3.99023 17.0762 4.09982 17.5736 4.31238C18.071 4.52493 18.5201 4.83605 18.8939 5.22696C19.2677 5.61787 19.5585 6.08047 19.7486 6.58683C19.9387 7.09319 20.0243 7.63283 20.0001 8.17316V9.5065" stroke="#5B4BFF" stroke-width="2.66667" stroke-linecap="round" stroke-linejoin="round"/>
  <path d="M16 26.6668C11.6 26.6668 8 23.0668 8 18.6668V14.6668C8 13.2523 8.5619 11.8958 9.5621 10.8956C10.5623 9.8954 11.9188 9.3335 13.3333 9.3335H18.6667C20.0812 9.3335 21.4377 9.8954 22.4379 10.8956C23.4381 11.8958 24 13.2523 24 14.6668V18.6668C24 23.0668 20.4 26.6668 16 26.6668Z" stroke="#5B4BFF" stroke-width="2.66667" stroke-linecap="round" stroke-linejoin="round"/>
  <path d="M16 26.6665V14.6665" stroke="#5B4BFF" stroke-width="2.66667" stroke-linecap="round" stroke-linejoin="round"/>
  <path d="M8.70667 11.9998C6.13333 11.7332 4 9.4665 4 6.6665" stroke="#5B4BFF" stroke-width="2.66667" stroke-linecap="round" stroke-linejoin="round"/>
  <path d="M8.00033 17.3335H2.66699" stroke="#5B4BFF" stroke-width="2.66667" stroke-linecap="round" stroke-linejoin="round"/>
  <path d="M4 27.9998C4 25.1998 6.26667 22.7998 9.06667 22.6665" stroke="#5B4BFF" stroke-width="2.66667" stroke-linecap="round" stroke-linejoin="round"/>
  <path d="M27.9596 6.6665C27.9596 9.4665 25.8263 11.7332 23.293 11.9998" stroke="#5B4BFF" stroke-width="2.66667" stroke-linecap="round" stroke-linejoin="round"/>
  <path d="M29.3333 17.3335H24" stroke="#5B4BFF" stroke-width="2.66667" stroke-linecap="round" stroke-linejoin="round"/>
  <path d="M22.9336 22.6665C25.7336 22.7998 28.0003 25.1998 28.0003 27.9998" stroke="#5B4BFF" stroke-width="2.66667" stroke-linecap="round" stroke-linejoin="round"/>
</svg>