<svg fill="none" height="40" role="img" viewBox="0 0 40 40" width="40" xmlns="http://www.w3.org/2000/svg">
	<title>Fund Icon</title>
	<path d="M36.4297 22.1405C36.432 22.136 36.4344 22.1317 36.4367 22.1272C38.4558 18.1598 38.5796 14.2969 36.7853 11.2498C35.187 8.53527 32.2546 6.79069 28.4424 6.25176C26.0602 3.28418 23.0532 1.6665 19.8563 1.6665C17.0854 1.6665 14.4572 2.88183 12.2547 5.13762C9.07968 5.38562 6.45852 6.61436 4.7072 8.71961C2.43936 11.4462 1.93179 15.2789 3.27811 19.5117C3.27959 19.5164 3.28129 19.5211 3.28284 19.5259C3.28058 19.5303 3.27811 19.5348 3.27586 19.5392C1.25672 23.5065 1.13293 27.3695 2.92719 30.4165C4.52553 33.1311 7.45793 34.8757 11.2701 35.4146C13.6523 38.3822 16.6594 39.9998 19.8563 39.9998C22.6277 39.9998 25.2566 38.784 27.4593 36.5271C30.633 36.2789 33.2545 35.0515 35.0053 32.9467C37.2732 30.2201 37.7807 26.3874 36.4344 22.1547C36.4329 22.15 36.4312 22.1452 36.4297 22.1405ZM35.4101 12.0284C36.7295 14.2693 36.7964 17.0836 35.629 20.0681C35.167 19.0485 34.6095 18.0425 33.9646 17.0616L33.3857 19.1356C33.9253 20.0863 34.3699 21.0441 34.7152 21.9936C34.1714 22.9695 33.5174 23.9201 32.7661 24.8332C32.9545 23.5319 33.0541 22.1939 33.0541 20.8332C33.0541 17.2229 32.3717 13.5203 30.8544 10.2047C30.5226 9.47963 30.1496 8.77246 29.7325 8.09097C32.3067 8.75147 34.2765 10.1033 35.4101 12.0284ZM8.2465 20.8332C8.2465 18.6673 8.50627 16.5919 8.98 14.6737C10.4561 13.2946 12.1645 12.0432 14.0514 10.975C16.2716 9.71818 18.5922 8.79937 20.8897 8.24552C23.0307 9.13923 25.1766 10.3987 27.1939 12.0118C28.6145 13.1478 29.873 14.3804 30.9556 15.6654C31.2871 17.3003 31.466 19.0356 31.466 20.8332C31.466 22.9991 31.2062 25.0745 30.7326 26.9926C29.2565 28.3718 27.5481 29.6232 25.6611 30.6914C23.4417 31.9477 21.1219 32.8686 18.8253 33.4225C16.6835 32.5288 14.5368 31.2683 12.5188 29.6546H12.5187C11.098 28.5186 9.83955 27.286 8.75695 26.0009C8.42541 24.3661 8.2465 22.6308 8.2465 20.8332ZM26.1839 6.07627C25.1387 6.05857 24.0695 6.12431 22.9882 6.2687L24.305 7.69332C24.8212 7.65233 25.3331 7.63015 25.8388 7.63015C26.198 7.63015 26.5545 7.64051 26.9071 7.66153C27.1394 7.67542 27.3682 7.69422 27.5939 7.71703C28.5798 9.05643 29.4146 10.6466 30.0536 12.4215C29.4644 11.8631 28.8454 11.323 28.1976 10.8049C27.4579 10.2135 26.6892 9.65676 25.8942 9.13886C25.1058 8.62525 24.2881 8.16556 23.4613 7.71469C22.8639 7.38889 22.2322 7.10591 21.601 6.84944C21.3758 6.75793 21.1867 6.68044 21.0233 6.61471C19.0852 5.85467 17.1208 5.36489 15.2019 5.1764C15.002 5.15684 14.8042 5.14177 14.6074 5.12884C16.1846 3.91109 17.9685 3.22363 19.8563 3.22363C22.1888 3.22363 24.3624 4.27328 26.1839 6.07627ZM5.93791 9.70374C7.1309 8.26957 8.80158 7.34952 10.7604 6.92063C10.6465 7.07802 10.5337 7.23748 10.4231 7.40136C9.48468 8.79267 8.71127 10.3603 8.11305 12.0508L10.0734 11.36C10.8458 9.53128 11.8353 7.93303 12.9856 6.64775C13.1541 6.64174 13.3234 6.63745 13.4945 6.63745C15.0311 6.63745 16.6707 6.87971 18.3465 7.3545C16.6243 7.9286 14.9128 8.68947 13.2573 9.6266C12.138 10.2601 11.0725 10.9714 10.0406 11.7335C9.29421 12.2849 8.5466 12.8629 7.89162 13.5187C7.77002 13.6362 7.65976 13.7425 7.5598 13.8389C7.55768 13.8468 7.55571 13.8549 7.55352 13.8628C6.3391 15.039 5.27962 16.3 4.40336 17.6173C3.76108 14.5933 4.21324 11.7773 5.93791 9.70374ZM4.30241 29.638C2.98302 27.3971 2.91612 24.5828 4.08352 21.5983C4.60188 22.7423 5.24064 23.8692 5.98803 24.9629L6.49348 22.8186C5.87848 21.7736 5.37754 20.7182 4.99736 19.6727C5.54116 18.6968 6.19508 17.7462 6.94642 16.8331C6.75805 18.1345 6.65837 19.4726 6.65837 20.8332C6.65837 21.7755 6.70315 22.7274 6.79213 23.6656C7.11762 27.0979 8.15797 30.5982 9.97998 33.5754C7.40591 32.9149 5.43605 31.5631 4.30241 29.638ZM13.5267 35.5882C13.6407 35.5901 13.7544 35.5932 13.8689 35.5932C14.8586 35.5932 15.8685 35.5186 16.8885 35.375L15.5501 33.9629C14.6181 34.0435 13.7002 34.0583 12.8054 34.0048C12.5731 33.991 12.3443 33.9722 12.1186 33.9494C11.1327 32.6099 10.2978 31.0197 9.65887 29.2447C10.2481 29.8032 10.8672 30.3433 11.5151 30.8614H11.5149C12.9949 32.0448 14.5589 33.0633 16.1638 33.8996C16.1612 33.9 16.1586 33.9002 16.156 33.9005C16.8166 34.2385 17.636 34.6321 18.423 34.9406C18.6991 35.0488 18.9204 35.1365 19.1017 35.2092C20.9056 35.8795 22.7277 36.3149 24.5107 36.4899C24.7106 36.5096 24.9083 36.5246 25.1051 36.5375C23.5279 37.7552 21.7441 38.4427 19.8563 38.4427C17.5229 38.4427 15.3486 37.3923 13.5267 35.5882ZM33.7746 31.9626C32.5815 33.3969 30.9107 34.3178 28.9514 34.7467C29.0656 34.589 29.1787 34.4292 29.2894 34.265C30.197 32.9196 30.9519 31.4103 31.5417 29.7835L29.5803 30.4425C28.8166 32.2145 27.8483 33.7658 26.7266 35.019C25.0438 35.0788 23.2251 34.8393 21.3612 34.3107C23.085 33.7364 24.7983 32.9778 26.4552 32.0397C27.6567 31.3597 28.7904 30.6077 29.8454 29.7973C29.8439 29.8011 29.8424 29.805 29.8409 29.8088C30.4049 29.3665 31.0634 28.8223 31.639 28.2731C32.1101 27.8235 32.3878 27.5647 32.55 27.4163C33.6019 26.352 34.5283 25.223 35.3092 24.0491C35.9514 27.073 35.4993 29.8892 33.7746 31.9626ZM20.5142 13.8001L20.7668 19.0509C20.7817 19.3599 21.0393 19.6041 21.3548 19.6082L25.1636 19.6573C25.6338 19.6634 25.9122 20.1756 25.6552 20.5617L20.5973 28.1588C20.2731 28.6457 19.5014 28.4206 19.5014 27.8391V22.6487C19.5014 22.3257 19.2343 22.0639 18.9049 22.0639H14.846C14.3751 22.0639 14.0895 21.5548 14.3426 21.1655C15.4763 19.4216 17.9924 15.5678 19.4253 13.4987C19.7473 13.0337 20.4872 13.2387 20.5142 13.8001Z" fill="url(#paint0_linear_185_1424_fund)"/>
	<defs>
		<linearGradient gradientUnits="userSpaceOnUse" id="paint0_linear_185_1424_fund" x1="-4.51867" x2="44.3551" y1="5.6915" y2="11.085">
			<stop stop-color="#5B4BFF"/>
			<stop offset="1" stop-color="#EE11FB"/>
		</linearGradient>
	</defs>
</svg>
