<svg fill="none" height="32" role="img" viewBox="0 0 32 32" width="32" xmlns="http://www.w3.org/2000/svg">
	<title>Lock Icon</title>
	<path d="M24.9842 14.7166H7.01524C5.59753 14.7166 4.44824 15.8658 4.44824 17.2836V26.2681C4.44824 27.6858 5.59753 28.8351 7.01524 28.8351H24.9842C26.402 28.8351 27.5512 27.6858 27.5512 26.2681V17.2836C27.5512 15.8658 26.402 14.7166 24.9842 14.7166Z" stroke="#5B4BFF" stroke-linecap="round" stroke-linejoin="round" stroke-width="2.5"/>
	<path d="M9.58203 14.7165V9.58254C9.58203 7.88051 10.2582 6.2482 11.4617 5.04468C12.6652 3.84117 14.2975 3.16504 15.9995 3.16504C17.7016 3.16504 19.3339 3.84117 20.5374 5.04468C21.7409 6.2482 22.417 7.88051 22.417 9.58254V14.7165" stroke="#5B4BFF" stroke-linecap="round" stroke-linejoin="round" stroke-width="2.5"/>
</svg>
