<svg width="23" height="25" viewBox="0 0 23 25" fill="none" xmlns="http://www.w3.org/2000/svg">
  <path d="M21.9652 12.9364C21.9667 12.9335 21.9682 12.9308 21.9696 12.928C23.2454 10.4212 23.3236 7.98043 22.1899 6.05515C21.18 4.33999 19.3272 3.23769 16.9185 2.89717C15.4133 1.02212 13.5133 0 11.4934 0C9.74267 0 8.08205 0.7679 6.69042 2.19321C4.68428 2.34991 3.02812 3.12628 1.92155 4.45647C0.488632 6.17927 0.167928 8.60093 1.01859 11.2754C1.01953 11.2784 1.0206 11.2814 1.02158 11.2844C1.02015 11.2872 1.01859 11.29 1.01717 11.2928C-0.258608 13.7995 -0.336824 16.2403 0.796864 18.1656C1.80677 19.8808 3.65959 20.983 6.0683 21.3236C7.57347 23.1986 9.47346 24.2207 11.4934 24.2207C13.2445 24.2207 14.9056 23.4525 16.2974 22.0265C18.3027 21.8696 19.959 21.0941 21.0653 19.7642C22.4982 18.0414 22.8189 15.6198 21.9682 12.9453C21.9673 12.9424 21.9662 12.9394 21.9652 12.9364ZM21.321 6.54709C22.1547 7.963 22.1969 9.74123 21.4593 11.6269C21.1674 10.9827 20.8152 10.3471 20.4077 9.7273L20.0419 11.0377C20.3828 11.6385 20.6638 12.2436 20.882 12.8436C20.5383 13.4602 20.1251 14.0608 19.6504 14.6377C19.7694 13.8156 19.8324 12.9701 19.8324 12.1104C19.8324 9.82923 19.4012 7.48976 18.4425 5.39479C18.2328 4.93668 17.9972 4.48986 17.7337 4.05926C19.3601 4.4766 20.6047 5.33075 21.321 6.54709ZM4.15784 12.1104C4.15784 10.7419 4.32198 9.43054 4.6213 8.21853C5.55397 7.34713 6.63341 6.55643 7.82562 5.88151C9.22848 5.08741 10.6947 4.50686 12.1463 4.15691C13.4991 4.7216 14.855 5.51737 16.1296 6.5366C17.0273 7.25437 17.8224 8.03319 18.5064 8.84515C18.7159 9.87815 18.829 10.9746 18.829 12.1104C18.829 13.4789 18.6648 14.7902 18.3656 16.0022C17.4329 16.8736 16.3534 17.6643 15.1612 18.3392C13.7589 19.133 12.2931 19.7148 10.842 20.0648C9.48874 19.5002 8.13234 18.7037 6.85727 17.6841H6.85719C5.95953 16.9663 5.1644 16.1875 4.48037 15.3756C4.27089 14.3426 4.15784 13.2462 4.15784 12.1104ZM15.4915 2.78628C14.8311 2.7751 14.1555 2.81664 13.4723 2.90787L14.3043 3.80801C14.6305 3.78211 14.9539 3.76809 15.2734 3.76809C15.5004 3.76809 15.7256 3.77465 15.9484 3.78792C16.0952 3.7967 16.2398 3.80858 16.3824 3.82299C17.0053 4.66928 17.5328 5.67402 17.9365 6.7955C17.5643 6.44266 17.1731 6.1014 16.7638 5.77408C16.2965 5.40036 15.8108 5.0486 15.3085 4.72137C14.8103 4.39684 14.2936 4.10639 13.7713 3.82152C13.3938 3.61566 12.9947 3.43686 12.5958 3.27481C12.4535 3.21699 12.334 3.16803 12.2308 3.1265C11.0062 2.64627 9.76503 2.3368 8.55255 2.21771C8.42627 2.20535 8.30129 2.19583 8.17697 2.18766C9.17351 1.41823 10.3006 0.983862 11.4934 0.983862C12.9672 0.983862 14.3406 1.64708 15.4915 2.78628ZM2.69917 5.07828C3.45296 4.17211 4.50856 3.59078 5.74626 3.31979C5.67428 3.41924 5.60301 3.51999 5.53312 3.62354C4.94018 4.50263 4.45151 5.49313 4.07352 6.56128L5.31215 6.12481C5.8002 4.96932 6.42539 3.95947 7.15223 3.14737C7.25869 3.14357 7.36563 3.14086 7.47374 3.14086C8.44467 3.14086 9.48063 3.29394 10.5394 3.59393C9.45132 3.95667 8.36988 4.43742 7.3239 5.02954C6.61669 5.42985 5.94342 5.87923 5.29146 6.3608C4.81983 6.70918 4.34746 7.07436 3.93361 7.48876C3.85678 7.56296 3.78711 7.63017 3.72395 7.69105C3.72262 7.69608 3.72137 7.70114 3.71999 7.70616C2.95266 8.44934 2.28324 9.24611 1.72958 10.0784C1.32375 8.16774 1.60945 6.38842 2.69917 5.07828ZM1.66579 17.6736C0.832141 16.2577 0.789871 14.4795 1.52749 12.5938C1.85501 13.3166 2.25861 14.0287 2.73084 14.7197L3.05021 13.3649C2.66162 12.7046 2.34511 12.0377 2.10489 11.3771C2.44849 10.7605 2.86166 10.1599 3.33639 9.58296C3.21738 10.4052 3.15439 11.2507 3.15439 12.1104C3.15439 12.7058 3.18269 13.3072 3.23891 13.9C3.44457 16.0687 4.1019 18.2803 5.25313 20.1614C3.62672 19.7441 2.38208 18.89 1.66579 17.6736ZM7.49409 21.4332C7.56616 21.4345 7.63797 21.4364 7.71035 21.4364C8.33563 21.4364 8.97374 21.3893 9.61827 21.2985L8.77259 20.4063C8.1837 20.4572 7.60376 20.4666 7.03838 20.4328C6.89157 20.424 6.74703 20.4122 6.60441 20.3978C5.98144 19.5514 5.45397 18.5467 5.05024 17.4251C5.42253 17.778 5.81374 18.1193 6.22308 18.4466H6.22299C7.15811 19.1944 8.14633 19.8379 9.16037 20.3663C9.15873 20.3665 9.15708 20.3667 9.15543 20.3669C9.57283 20.5804 10.0905 20.8291 10.5878 21.024C10.7622 21.0924 10.9021 21.1478 11.0166 21.1937C12.1564 21.6173 13.3077 21.8924 14.4343 22.003C14.5606 22.0154 14.6855 22.0249 14.8099 22.033C13.8133 22.8025 12.6862 23.2368 11.4934 23.2368C10.0191 23.2368 8.64524 22.5731 7.49409 21.4332ZM20.2876 19.1424C19.5338 20.0487 18.4781 20.6305 17.2402 20.9015C17.3123 20.8019 17.3837 20.7009 17.4537 20.5972C18.0271 19.7471 18.5041 18.7935 18.8768 17.7656L17.6375 18.1819C17.1549 19.3016 16.5432 20.2818 15.8344 21.0736C14.7711 21.1114 13.622 20.96 12.4443 20.6261C13.5334 20.2632 14.616 19.7838 15.6629 19.1912C16.422 18.7615 17.1384 18.2863 17.805 17.7743C17.804 17.7767 17.8031 17.7791 17.8021 17.7815C18.1585 17.5021 18.5746 17.1582 18.9383 16.8112C19.236 16.5272 19.4114 16.3637 19.5139 16.2699C20.1785 15.5974 20.7639 14.884 21.2572 14.1423C21.6631 16.053 21.3774 17.8323 20.2876 19.1424ZM11.9091 7.66657L12.0687 10.9843C12.0781 11.1795 12.2409 11.3338 12.4402 11.3363L14.8468 11.3674C15.1439 11.3712 15.3198 11.6949 15.1574 11.9388L11.9616 16.739C11.7568 17.0467 11.2692 16.9045 11.2692 16.537V13.2575C11.2692 13.0534 11.1004 12.888 10.8923 12.888H8.3277C8.0302 12.888 7.84969 12.5663 8.0096 12.3203C8.72596 11.2184 10.3157 8.78346 11.2211 7.47608C11.4246 7.18228 11.8921 7.31183 11.9091 7.66657Z" fill="url(#paint0_linear_185_2979)"/>
  <defs>
    <linearGradient id="paint0_linear_185_2979" x1="-4.41493e-09" y1="12.1104" x2="23.4386" y2="12.1104" gradientUnits="userSpaceOnUse">
      <stop stop-color="#3005FA"/>
      <stop offset="1" stop-color="#FF12FB"/>
    </linearGradient>
  </defs>
</svg>