<svg fill="none" height="20" viewBox="0 0 20 20" width="20" xmlns="http://www.w3.org/2000/svg">
	<title>Rocket Icon</title>
	<path d="M17.9969 2.60309C17.9375 2.30622 17.7063 2.07497 17.4094 2.01559C16.0031 1.73434 13.8469 1.55622 11.7625 2.63122C10.5125 3.27809 9.34688 4.34372 8.39688 5.99997H5.86251C5.33438 5.99997 4.84688 6.27497 4.57501 6.72809L2.92188 9.48434C2.52188 10.1531 3.00313 11 3.77813 11H7.01251C8.11563 11 9.01251 11.8968 9.01251 13V16.2343C9.01251 17.0125 9.85938 17.4906 10.5281 17.0906L13.2844 15.4375C13.7375 15.1656 14.0125 14.6781 14.0125 14.15V11.6156C15.6719 10.6656 16.7375 9.49997 17.3813 8.24997C18.4563 6.16559 18.2781 4.00934 17.9969 2.60309ZM12.5125 12.3468V14.1531L10.5125 15.3531V13.025C11.2406 12.825 11.9063 12.6 12.5125 12.35V12.3468ZM10.2 11.5531C9.85001 10.7843 9.23126 10.1625 8.45938 9.81247C9.41563 6.37809 10.9563 4.73434 12.45 3.96247C13.8844 3.22184 15.4063 3.21872 16.6125 3.39684C16.7938 4.60309 16.7875 6.12497 16.0469 7.55934C15.275 9.05309 13.6313 10.5937 10.1969 11.55L10.2 11.5531ZM6.99063 9.49997H4.66251L5.86251 7.49997H7.66876C7.41876 8.10622 7.19376 8.77184 6.99376 9.49997H6.99063ZM14.7625 6.49997C14.7625 6.16845 14.6308 5.8505 14.3964 5.61608C14.162 5.38166 13.844 5.24997 13.5125 5.24997C13.181 5.24997 12.863 5.38166 12.6286 5.61608C12.3942 5.8505 12.2625 6.16845 12.2625 6.49997C12.2625 6.83149 12.3942 7.14943 12.6286 7.38385C12.863 7.61827 13.181 7.74997 13.5125 7.74997C13.844 7.74997 14.162 7.61827 14.3964 7.38385C14.6308 7.14943 14.7625 6.83149 14.7625 6.49997ZM6.77501 16.8C7.75938 15.8156 7.75938 14.2218 6.77501 13.2375C5.79063 12.2531 4.19688 12.2531 3.21251 13.2375C2.23438 14.2156 2.04063 16.1125 2.01563 17.1875C2.00313 17.6437 2.36563 18.0062 2.82501 17.9968C3.90313 17.9718 5.79688 17.7781 6.77501 16.8ZM5.50626 15.8C5.19063 16.1156 4.61563 16.2062 4.21563 16.2281C3.96563 16.2437 3.76876 16.0437 3.78126 15.7937C3.80313 15.3937 3.89688 14.8187 4.20938 14.5031C4.56563 14.1468 5.14688 14.1468 5.50313 14.5031C5.85938 14.8593 5.85938 15.4406 5.50313 15.7968L5.50626 15.8Z" fill="white"/>
</svg>
